<!--?xml version="1.0" encoding="utf-8"?-->
<!-- Generator: Adobe Illustrator 18.0.0, SVG Export Plug-In . SVG Version: 6.00 Build 0)  -->

<svg version="1.1" id="_x32_" xmlns="http://www.w3.org/2000/svg" xmlns:xlink="http://www.w3.org/1999/xlink" x="0px" y="0px" viewBox="0 0 512 512" style="width: 32px; height: 32px; opacity: 1;" xml:space="preserve">
<style type="text/css">
	.st0{fill:#4B4B4B;}
</style>
<g>
	<path class="st0" d="M484.007,61.227H27.993v308.886h456.014V61.227z M62.974,334.108V97.236c0-0.567,0.46-1.029,1.025-1.029
		h384.003c0.565,0,1.025,0.462,1.025,1.029v236.872c0,0.567-0.46,1.025-1.025,1.025H63.998
		C63.434,335.132,62.974,334.674,62.974,334.108z" style="fill: rgb(60, 179, 113);"></path>
	<path class="st0" d="M0,396.902v18.393c0,19.561,15.912,35.478,35.472,35.478h441.055c19.561,0,35.474-15.916,35.474-35.478
		v-18.393H0z M214.649,422.547v-5.47h82.7v5.47c0,3.218-2.62,5.838-5.84,5.838h-71.017
		C217.269,428.386,214.649,425.765,214.649,422.547z" style="fill: rgb(60, 179, 113);"></path>
</g>
</svg>
